<?xml version="1.0" encoding="UTF-8"?><svg id="_レイヤー_2" xmlns="http://www.w3.org/2000/svg" viewBox="0 0 437.76 147.44"><defs><style>.cls-1,.cls-2{fill:#fff;}.cls-1,.cls-3{stroke:#fbb03b;stroke-linejoin:round;stroke-width:9px;}.cls-4,.cls-3{fill:#c1272d;}</style></defs><g id="_レイヤー_1-2"><path class="cls-1" d="M8.1,35.39l.42-2.67-1.29.18-1.24-2.72,1.66-.78,4.7,1.2.23-3.09c-1.71-.18-3.27-.65-4.7-1.52l-1.01-1.84,1.24-1.48h1.48l1.11.46v-.88c-.6-1.38-.92-2.81-1.11-4.33l.88-1.06.42-.65-4.47-.6c-.55-1.11-1.2-2.21-1.89-3.32l.65-.46v-.83l1.24-.41c1.43,1.11,3.09,1.75,5.07,1.84l-1.66-3.09c.6-1.11,1.06-2.31,1.48-3.55l.88-.41.18-.46,1.06-.18,3.83,1.89,1.29,3.55-.23,1.01c.55,1.24,1.61,1.71,3.18,1.24l1.71-.6c-.41,1.11-1.11,1.94-2.12,2.49-.55,3.09-1.01,6.22-1.29,9.4.97.42,2.07.55,3.18.42l.65-.23.46.88-1.48,1.43-4.06.88-.65,2.67c.83.46,1.84.55,2.95.41l.88-.23,1.06.23v.65l-.83,1.01c-1.15.6-2.35,1.01-3.64,1.29l-.18,2.49c1.24,1.24,2.67,2.07,4.24,2.49l.6-.18,1.52,1.66c-1.01.83-2.21,1.15-3.64,1.06l-3.36-1.06-.23,1.24.23,1.89c-.69.83-1.57,1.24-2.58,1.24-.83-1.52-1.38-3.18-1.66-5.02-.28-1.8-.41-3.6-.41-5.44l-1.34.23-1.24-.23-.42,3.37.65,6.08c0,.92-.37,1.84-1.11,2.67-.97-3.23-1.38-6.59-1.24-10.23ZM17.87,22.9c.28-2.9,1.11-5.62,2.58-8.16h-1.34c-1.57.6-3.23.88-5.07.88l-.23.78.23,1.06-.42,1.48.65,3.32-.65,1.48,3.37.18.88-.18v-.83ZM34.42,43.09l-.23-.78.65-1.66c-.42-1.29-.55-2.58-.42-3.96l.42-1.29h-.78l-.69.23-1.24-.23-2.12,5.02-1.11,1.01-1.48,3.55-.88.23-.14-1.24c.65-3.04,1.52-6.13,2.49-9.17l-3.13-2.54c-.32-1.94-.6-3.78-.88-5.58-.28-1.84-.37-3.78-.23-5.85l.42-.83-.18-2.07c.6-2.81,1.38-5.53,2.35-8.16l2.35-1.89c1.24,1.52,1.89,3.27,1.89,5.21l-.23,2.31c2.86,1.52,5.81,2.63,8.9,3.32v-3.09l-.37-2.12c-2.72-1.24-5.25-2.77-7.65-4.56l-1.06-1.48c.28-1.24,1.11-1.8,2.54-1.66,2.12.55,4.19,1.29,6.18,2.21,1.98.88,3.92,1.8,5.9,2.77l.23.65.65.23v.78l-1.48.46c-.28,1.94-.65,3.83-1.11,5.62l.23,1.24c-.41,2.21-.88,4.47-1.38,6.68-.46,2.21-1.29,4.33-2.44,6.27l-1.24,1.01-.23.65c-1.24,0-2.17.32-2.77,1.01l.88,1.48c2.4,1.38,5.07,2.12,8.07,2.12l1.06-.46v1.06l-.46.83.23.65-.42,1.24.42.78.41.23c-1.84,1.71-3.83,2.9-5.95,3.55-2.26-.55-4.24-1.8-5.95-3.78ZM39.76,31.48c.42-2.67.69-5.3.83-7.93l-.46-1.89h-1.01l-.88,1.01-2.72.65c-1.89-.14-3.6-.55-5.16-1.29l-.14,2.54c2.95,1.24,6.04,1.94,9.31,2.07l-2.35,1.89c-1.43.05-2.81.14-4.24.23l-2.35-.65v1.66l.65,2.07,4.7.41,3.83-.78ZM38.24,8.93v.6l.42-.18-.42-.42ZM43.59,41.89l-1.29.18v.65l1.06-.23.23-.6Z"/><path class="cls-1" d="M57.14,39.5c-1.43-2.49-2.49-5.07-3.18-7.84-.74-2.72-1.15-5.53-1.29-8.48.28-1.8.6-3.6.97-5.35.32-1.75.88-3.46,1.57-5.12l.6-.23.88-1.24,1.24-.23.23,3.18c-.28,1.66-.41,3.37-.41,5.12v5.35c.14,2.21.23,4.47.32,6.68.05,2.26.42,4.33,1.11,6.27l1.11.23.78-.23v3l-.14.6h-1.11l-2.67-1.71ZM65.71,34.06l-1.24-2.49c-.18-2.4.69-4.33,2.49-5.85l.65-.18-.65,4.79.88,1.43c2.67.69,5.39,1.06,8.21,1.06l2.3-.18,1.29.18,1.66-.65.65-.78c1.52-.46,2.95-1.01,4.19-1.71l1.29.65.42,1.24-3.6,1.84-1.06,1.52-2.54,1.01-.78-.18c-1.57.55-3.32.78-5.3.65-3.09-.42-6.04-1.2-8.85-2.35ZM66.96,15.66l-1.43-3.18,3.13-.18,5.3.41c2.21-.28,4.52-.55,6.91-.74,2.35-.23,4.61-.69,6.78-1.38l1.89,1.71v.83l-.23.42c-1.29,1.38-2.77,2.67-4.43,3.78h-.88l-1.66-.42c-1.8.83-3.87,1.24-6.08,1.24-3.37-.28-6.45-1.11-9.31-2.49Z"/><path class="cls-1" d="M102.36,42.26c-.42-.69-1.06-1.06-1.89-1.06-1.24-1.98-2.07-4.15-2.44-6.5-.37-2.4-.46-4.84-.32-7.33.28-2.67.69-5.25,1.15-7.74.51-2.54,1.38-4.89,2.63-7.15l.65-.18c.74.97,1.01,2.17.88,3.55-.32,1.57-.6,3.09-.88,4.61l.23.83c-.05,5.76-.05,11.66,0,17.61h.65l1.89-3.13.6-.23.23.88c-1.15,1.8-2.12,3.69-2.95,5.62l-.41.23ZM118.17,40.14c-1.98-.42-3.73-1.48-5.3-3.09-1.52-1.57-2.4-3.41-2.54-5.49l1.94-3.78c2.35-.97,5.02-1.38,7.97-1.24l4.61.83v-2.3l-.42-1.89c.05-1.01.09-2.07.18-3.13-.69-.42-1.43-.55-2.26-.42l-3.6.23-1.29-.23c-.42.55-.97.78-1.66.6-1.43-.51-3-.74-4.84-.6l-2.31-2.72.6-2.12,1.06-.42c1.29.46,2.63.65,4.01.65,3.18-.09,6.36-.28,9.5-.65.42-.97.55-2.07.42-3.37l-.42-2.07.42-1.24h1.24l2.54,1.24.42,1.66-1.06.23v.65c.28,1.11.51,2.21.65,3.32,2.49.28,5.02.55,7.61.88l.6-1.11,1.66-.55.23,1.43-2.49,2.9c-2.4.74-4.93,1.15-7.61,1.29l-.42,1.89.23.6-.65,6.5,4.19,2.77,3.13,3.96v1.89l-.6,1.89c-2.26-1.98-4.56-3.5-6.96-4.61h-.65l-2.07,4.38-3.18,1.24-1.01-.18-1.89.18ZM123.19,36.82c.69-1.01,1.11-2.07,1.24-3.18-1.52-.97-3.13-1.89-4.75-2.72-1.57-.83-3.32-1.29-5.12-1.43-1.43,1.11-1.98,2.49-1.71,4.15l1.48,2.54c2.26.83,4.7,1.24,7.38,1.24l1.48-.6Z"/><path class="cls-1" d="M155.09,20.04l-.69.18-1.24-.18-.65.18c-3.23-.23-6.13-1.38-8.67-3.32l-.42-1.48.83-1.66,1.89-.42c1.84.42,3.69.78,5.62,1.01,1.89.28,3.78.51,5.58.65l-3.37-3.37-.83-2.3.18-.83c-.97-.69-1.34-1.61-1.01-2.72l1.01-.41c.69-.74,1.61-1.01,2.77-.83,3.5.42,6.91,1.24,10.19,2.49l.37,1.06,1.06.41.23,1.06.83.41.23,1.01.65.23.18,2.12-1.29,2.49c1.75.41,3.55.6,5.44.6h5.58l2.35-.37.18.6-.83,1.29c-3.69.97-7.47,1.66-11.43,1.98-3.92.37-7.93.51-12.03.51l-2.72-.41ZM161.18,25.9c-2.26-.41-4.56-.55-6.96-.37l-.88.18-1.01-.18-.69.18c-1.11-.46-2.21-.92-3.37-1.48l-.18-.6.83-1.75c.88-.51,1.84-.78,2.95-.78,2.58.69,5.12,1.29,7.65,1.75,2.54.51,5.21.69,8.02.55,3.23-.28,6.41-.69,9.5-1.29l.41.88-1.06,1.43c-1.98.32-3.92.6-5.81.88-1.89.28-3.83.46-5.81.6l-1.06-.18-2.54.18ZM149.98,30.32l-.83-1.89c1.52-1.15,3.5-1.48,5.95-1.06l8.85.83,1.01-.23.65.23c3.41.14,6.64-.14,9.77-.83l.18.83-.88,1.06c-1.52.55-3.18.92-5.02,1.06l-1.11-.23-10.56.65-.65-.23-3.37.23-2.54-.23-.6.23-.88-.42ZM155.09,44.8l-.88-1.11c-.83-.09-1.61-.51-2.35-1.2-1.11-.83-1.52-2.03-1.24-3.6.14-2.26.65-4.24,1.48-6.08l1.48-.83c1.43.42,2.54,1.11,3.41,2.07l.18.65-.18,1.24c.14,1.71.65,3.23,1.48,4.66,2.4,1.11,4.98,1.75,7.84,1.89,2.21.05,4.47-.14,6.73-.65-.41-1.57-.65-2.95-.65-4.24-2.12-.28-4.15-.6-6.13-1.01-1.94-.42-3.92-.92-5.9-1.43l-.65-1.75.65-1.24,3.37-.42c2.95,0,5.9.14,8.76.32,2.9.23,5.62.97,8.16,2.21l.42,1.06-.42,1.06-1.89.65-.6.78-1.11.41c-.42,1.84-1.06,3.6-1.89,5.26l-.65.18-.41-1.2h-.65l-.42.78h-.65l-.83,1.71-2.12.6-.88-.42-3.96,1.06-1.11-.42c-.97.28-2.03.46-3.13.65-1.98-.18-3.73-.74-5.25-1.66Z"/><path class="cls-1" d="M195.38,45.21c-.74-.55-1.11-1.24-1.11-2.12,1.71-3.41,3.78-6.78,6.22-9.96,2.44-3.23,4.89-6.41,7.33-9.59l-1.48-.23-2.81.23c-3.6,0-6.78-1.01-9.5-2.95v-1.89l.46-1.24,2.17-.42c2.72.55,5.49,1.11,8.3,1.57,2.77.51,5.62.92,8.48,1.38l1.48-.23.92.42v.65l-1.29,1.2c-.46,1.01-1.2,1.94-2.17,2.77-2.3,1.8-4.43,3.83-6.27,6.04v.65c2.72.69,5.16,1.84,7.33,3.55l3.41,2.9h2.17c1.01-.69,1.75-1.57,2.17-2.54l.69-1.43.83-.23.18,3.55-1.24,1.71-.46.37c-1.71,1.57-3.78,2.44-6.27,2.72-1.71-.42-3.36-1.06-5.02-1.89-1.66-.78-3.13-1.94-4.43-3.32l-1.94-1.84h-.65c-1.29,1.61-2.54,3.27-3.64,4.89-1.15,1.57-2.07,3.27-2.81,5.07l-1.06.23ZM206.44,13.41c-2.4-.32-4.56-1.2-6.59-2.63l-.6-2.44.18-1.52,2.4-.78c2.72.78,5.44,1.75,8.16,2.9,2.72,1.11,5.39,2.3,7.97,3.5l.65-.14.23,1.2c-1.57,1.24-3.46,1.84-5.62,1.71-2.17-.83-4.43-1.43-6.78-1.8Z"/><path class="cls-1" d="M240.6,33.27v-3.41c.37-1.94.88-3.87,1.43-5.76.6-1.89,1.06-3.78,1.43-5.76h-1.43l-.6-.37c-1.15-1.29-1.75-2.77-1.89-4.43l.83-.65v-.6c1.71.41,3.37.69,4.98.83,1.01-1.66,1.8-3.5,2.3-5.44.69-.83,1.61-1.34,2.72-1.48l.83.6v2.54l-.6.88-1.29,3.32,7.56,1.01,1.43-.78.6,1.01-2.03,1.89c-1.98.42-3.92.83-5.85,1.29l-1.06-.23c-.83.41-1.66.6-2.54.6l-3.32,12.17-1.01.88-.65,1.89-.83.37-1.01-.37ZM255.58,44.15c-.55.42-1.15.55-1.89.42-1.8-.69-3.5-1.61-5.16-2.72-1.24-1.66-2.12-3.55-2.54-5.67l4.38-4.43,4.79-1.01,1.89.23v-.65l-1.24-4.01c.14-1.8.6-3.27,1.43-4.43l1.66-.6v1.48l-.14,1.06c.42,2.9,1.57,5.53,3.5,7.74,3.37.55,6.27,2.03,8.76,4.38l.42,2.77-1.06.6-6.87-2.9-.65,3.73.23,1.24-2.49,2.95-3.37.46-1.66-.65ZM259.77,37.84c-.28-1.24-.83-2.44-1.66-3.55-1.43-.83-3.09-1.2-5.02-1.01l-1.66.78-2.49,3.37c.83.97,1.84,1.75,3.09,2.3,2.26.42,4.61.74,7.1.88l.65-2.77ZM266.46,20.64c-1.66-.37-3.13-1.2-4.38-2.49l-1.29-1.24c-1.11-1.94-1.98-3.96-2.67-6.08l.65-1.24c2.31,1.11,4.47,2.44,6.41,3.96,1.94,1.52,4.19,2.44,6.73,2.72l-.88,1.29h-.65l-.6,2.49-2.3.6-.65-.42-.37.42Z"/><path class="cls-1" d="M293.05,39.17c-2.26-3.78-3.87-7.84-4.84-12.22-.97-4.38-1.57-8.9-1.71-13.46,0-1.52.37-2.77,1.11-3.73h.78c1.24,2.07,2.17,4.38,2.77,6.87l-.23,1.06.46,3.55-.23.65c.69,2.9,1.38,5.72,2.07,8.53.69,2.77,1.89,5.39,3.6,7.93l1.06.18,3.13-2.07,2.54-2.95.23,1.89c-.83,1.71-2.03,3.18-3.6,4.38l-3.55,1.48-3.6-2.07ZM311.58,26.64c-1.57-1.8-2.35-3.96-2.35-6.45s-.28-4.89-.83-7.1l.83-.18,3.37,2.9c1.57,2.77,3.46,5.49,5.72,8.11l2.07.88.23,1.01-1.24.65-1.71-.23-2.12,1.89-1.43.18-2.54-1.66Z"/><path class="cls-1" d="M334.86,44.2c-.09-3.73-.18-7.47-.23-11.16l-2.35,2.31-1.06.14-.18,1.29-1.94-.41-1.29-3.5c1.11-2.07,2.21-4.19,3.32-6.32,1.06-2.17,2.4-4.19,3.96-6.13,1.24-1.2,2.67-1.98,4.24-2.26l.65-1.24,1.29-.41,1.94.65.18,1.01c-1.43,1.66-2.58,3.41-3.41,5.3-.88,1.84-1.71,3.64-2.54,5.44l-.65.23-.23,1.43c.74,1.11,1.06,2.35,1.06,3.73l-.18.42.83,9.08-1.48,2.9-1.94-2.49ZM345.92,42.12l2.58-3.69-3.23-2.54-.6-2.26,1.71-.78.23-.46,1.89-.18c1.29.97,2.72,1.52,4.29,1.66l1.29-2.07c-2.58-.41-4.89-1.43-6.87-3.09-1.71,1.06-2.9,2.54-3.64,4.33h-.6l-.88-.18-.65-.46v.88h-.83l-.88-.41-.42-3.13c.83-1.61,1.75-3.27,2.67-4.84.92-1.61,2.03-3.13,3.27-4.7l1.52-.55.41-1.06,2.58-2.31c-3.27-.51-6.68-.74-10.23-.69-3.55.05-6.78-.69-9.63-2.17l-.18-1.43.83-1.06,2.35-.23,10.28,1.06-2.81-3.5-.23-1.71c.88-.65,1.89-.92,3.04-.78l.6-.83h.88l.6.18,1.75-.41c2.26.69,4.38,1.89,6.36,3.55l.69.6.42,1.84-.88.65v1.24l4.52.42,7.88-1.01v.78c-1.71,1.52-3.69,2.4-5.9,2.58-2.21.23-4.38.6-6.5,1.15-.14,1.11-.51,2.07-1.06,2.9,1.71.69,3.5,1.29,5.35,1.84,1.84.55,3.78.83,5.76.83l.65.83h.83v.83l-1.06,1.24-2.77,1.24c-1.71,3.04-3.5,5.99-5.35,8.9,1.43,1.2,3.13,1.84,5.02,1.94,1.94.09,3.73.55,5.44,1.38l.18,2.49-2.12.18-.18,1.24-1.29.18-1.06,2.3-1.71.6c-2.86-.55-5.49-1.61-7.88-3.09l-.69-.88h-.83c-1.15,1.71-2.4,3.23-3.83,4.56l-1.11-3.92ZM356.8,28.89c.46-.83.6-1.8.46-2.9-1.98-1.11-4.19-1.84-6.59-2.26l-.46,1.24c.28.55.78.74,1.48.65l2.4,2.21,2.72,1.06ZM352.79,12.16l-.23.6,1.06.23-.83-.83Z"/><path class="cls-1" d="M376.39,41.71v-1.01h-.6l-.46-2.95c1.84-2.35,3.37-4.79,4.61-7.33,1.29-2.58,2.63-5.12,4.01-7.61-2.9-.28-5.44-1.43-7.56-3.5-.69-.6-1.01-1.34-.83-2.3l1.01-2.49.88-.23,5.67,2.3.83-.23,3.18.65,4.61-7.7.88-.18-1.29,5.81.18.65-1.24,2.67c2.81,1.52,5.76,2.67,8.85,3.55v1.89c-2.07,2.3-3.55,4.89-4.43,7.65-.83,2.77-1.98,5.49-3.37,8.07h-.6l-.46-1.01.23-.65-.65-2.07,4.19-10.97c-2.12-.28-4.19-.55-6.32-.88-1.52,3.23-3.09,6.36-4.7,9.5-1.61,3.09-3.55,6.13-5.81,9.03l-.83-.65ZM412.99,37.75c-.97,0-1.8-.42-2.49-1.2-2.95-3.32-5.53-6.91-7.7-10.74-2.17-3.78-3.27-8.07-3.27-12.77h.88l3.78,3.96c1.24,3.32,2.63,6.64,4.1,9.96s3.46,6.45,5.99,9.36l-.65,1.24-.65.18ZM408.38,15.16c-2.12-1.66-3.32-3.69-3.6-6.04l.88-.23,5.26,4.61.18,1.2c-.41.69-1.06,1.06-1.89,1.06l-.83-.6ZM414.28,13.68c-.88-.42-1.71-.92-2.54-1.43-1.71-1.66-2.58-3.69-2.77-6.04h.88c1.57,1.52,3.23,2.86,5.02,3.96h.88v1.43l-1.48,2.07Z"/><path class="cls-1" d="M429.22,45.4c-1.52-1.11-3-2.26-4.43-3.5-1.43-1.24-2.58-2.72-3.55-4.43l-.88-2.44c.41-.69,1.06-.92,1.89-.65,2.86,1.11,5.53,2.63,8.02,4.61l.65,1.24,1.01,1.01.41,1.84c.74.32,1.01.88.88,1.71l-4.01.6Z"/><path class="cls-3" d="M43.48,135.02c-4.22-.88-8.45-1.76-12.67-2.82-4.14-1.06-7.83-3.17-11-6.42-1.94-3.96-2.99-8.18-3.26-12.67l2.02-.79,4.84,5.1c.26,2.11,1.06,4.05,2.38,5.63,5.9,2.11,12.32,2.99,19.27,2.73,4.31-.26,8.62-.53,12.94-.97,4.22-.35,8.27-1.5,11.97-3.34l2.11,1.14.35,4.4c-.53,1.58-1.5,2.55-2.82,2.82l-1.58,2.38c-2.46.79-5.02,1.5-7.66,2.02l-2.38-.44-1.23.44-1.23-.44c-2.9.79-5.9,1.23-8.8,1.23l-1.23-.44-2.02.44ZM28.96,86l-.7-2.38c-1.94.26-3.34-.44-4.4-2.02l-1.23-2.73,1.23-1.67,1.94-.35,2.02.35,1.14-.35c2.46,1.06,5.02,1.85,7.66,2.38l4.05-.79,25.34,1.67,3.61-2.11.79,2.82c-1.32,2.11-3.17,4.05-5.54,5.63l-2.9.79-1.14,1.58-9.33,2.29-3.17-.26-10.03.7-9.33-5.54Z"/><path class="cls-3" d="M131.48,135.02c-4.22-.88-8.45-1.76-12.67-2.82-4.14-1.06-7.83-3.17-11-6.42-1.94-3.96-2.99-8.18-3.26-12.67l2.02-.79,4.84,5.1c.26,2.11,1.06,4.05,2.38,5.63,5.9,2.11,12.32,2.99,19.27,2.73,4.31-.26,8.62-.53,12.94-.97,4.22-.35,8.27-1.5,11.97-3.34l2.11,1.14.35,4.4c-.53,1.58-1.5,2.55-2.82,2.82l-1.58,2.38c-2.46.79-5.02,1.5-7.66,2.02l-2.38-.44-1.23.44-1.23-.44c-2.9.79-5.9,1.23-8.8,1.23l-1.23-.44-2.02.44ZM116.96,86l-.7-2.38c-1.94.26-3.34-.44-4.4-2.02l-1.23-2.73,1.23-1.67,1.94-.35,2.02.35,1.14-.35c2.46,1.06,5.02,1.85,7.66,2.38l4.05-.79,25.34,1.67,3.61-2.11.79,2.82c-1.32,2.11-3.17,4.05-5.54,5.63l-2.9.79-1.14,1.58-9.33,2.29-3.17-.26-10.03.7-9.33-5.54Z"/><path class="cls-1" d="M193.87,132.03c-2.73-4.75-4.75-9.68-6.07-14.96-1.41-5.19-2.2-10.56-2.46-16.19.53-3.43,1.14-6.86,1.85-10.21.62-3.34,1.67-6.6,2.99-9.77l1.14-.44,1.67-2.38,2.38-.44.44,6.07c-.53,3.17-.79,6.42-.79,9.77v10.21c.26,4.22.44,8.54.62,12.76.09,4.31.79,8.27,2.11,11.97l2.11.44,1.5-.44v5.72l-.26,1.14h-2.11l-5.1-3.26ZM210.24,121.64l-2.38-4.75c-.35-4.58,1.32-8.27,4.75-11.18l1.23-.35-1.23,9.15,1.67,2.73c5.1,1.32,10.3,2.02,15.66,2.02l4.4-.35,2.46.35,3.17-1.23,1.23-1.5c2.9-.88,5.63-1.94,8.01-3.26l2.46,1.23.79,2.38-6.86,3.52-2.02,2.9-4.84,1.94-1.5-.35c-2.99,1.06-6.34,1.5-10.12,1.23-5.9-.79-11.53-2.29-16.9-4.49ZM212.62,86.53l-2.73-6.07,5.98-.35,10.12.79c4.22-.53,8.62-1.06,13.2-1.41,4.49-.44,8.8-1.32,12.94-2.64l3.61,3.26v1.58l-.44.79c-2.46,2.64-5.28,5.1-8.45,7.22h-1.67l-3.17-.79c-3.43,1.58-7.39,2.38-11.62,2.38-6.42-.53-12.32-2.11-17.78-4.75Z"/><path class="cls-1" d="M322.53,140.56c2.73-3.7,5.19-7.48,7.48-11.18,2.29-3.7,3.08-8.1,2.55-13.11l-2.82-4.75c-2.11-2.11-4.49-3.43-7.22-4.05-.79,4.49-2.02,8.8-3.78,12.76-1.67,3.96-3.61,8.01-5.81,11.97l-5.9,4.75-3.61,4.4-3.61,1.14c-5.37-.26-9.86-2.46-13.64-6.78l-2.82-5.9c-3.17-2.9-5.19-6.25-5.98-9.94,1.32-2.64,2.46-5.37,3.61-8.01,2.64-2.9,5.63-5.46,8.71-7.57,1.94.26,3.43-.53,4.49-2.38l.35-1.58-1.58-10.38-3.61,1.14-2.38-.26-2.82.7-1.23-.44-3.96.88c-1.85-1.32-3.7-2.55-5.54-3.61-1.41-1.58-1.76-3.61-1.23-5.98l1.23-2.29,1.14-.44,2.38,1.14,1.58-.44,2.46,1.23,6.78-1.23,1.58.44,2.46-.7c.18-4.84,1.14-9.24,2.73-13.2h2.38l2.9,2.38c.79,3.52,1.67,6.95,2.73,10.38,4.31.26,8.54.7,12.85,1.41,4.22.62,8.62.97,13.2.97l2.38-3.17,1.23-.44,1.14,1.94-2.38,4.05c-5.63,2.99-11.7,4.4-18.39,4.4l-7.22-.44-4.05,1.23-.35,3.96,1.58,3.61h2.02l10.74-1.67,2.9-2.29,3.17-.88.44,4.05,5.54,1.23,2.02-.44,1.58,2.73,8.01,4.84.79.79c3.43,3.17,5.19,7.04,5.19,11.53-.26,4.31-2.02,7.83-5.19,10.74-3.26,4.31-6.78,8.27-10.74,11.97l-6.07,3.17-.44-2.38ZM303.43,127.45v-1.67c-2.46-5.02-4.49-10.3-6.07-15.93h-1.94c-3.78,1.32-7.13,3.34-10.03,6.07l-.35,4.4c.79,3.87,2.73,7.48,5.9,10.74l3.26.7,9.24-4.31ZM295.42,107.48l-.44,1.23,1.23-.35-.79-.88ZM308.54,122.61c1.94-2.9,3.08-6.07,3.61-9.33.53-3.26,1.06-6.69,1.67-10.21h-1.67l-8.36,3.17-.35,2.46c1.32,4.75,2.46,9.59,3.61,14.34l1.5-.44Z"/><path class="cls-1" d="M381.31,132.29l-2.38-4.31c.79-1.58,1.23-3.17,1.23-4.75,3.43-3.17,7.74-4.31,12.76-3.52,5.37,2.11,10.3,4.84,14.78,8.27,4.58-2.64,8.45-5.9,11.62-9.86l.44-7.13-2.02-.79-1.14-4.66c-3.26-1.32-6.42-2.55-9.68-3.61l-1.5.35-6.42-.7c-4.31.79-8.36,1.85-12.41,3.34-4.05,1.41-7.74,3.34-11.26,5.72l-3.17,3.08h-1.23l-1.14-4.66,24.38-25.26.88-1.23c-3.26-.26-6.6-.53-10.03-.97-3.52-.35-6.95-.44-10.47-.18l-1.5.35-6.07-3.96-.44-1.5c1.94-1.85,4.05-2.9,6.51-3.26l7.13.44,6.78-1.14c4.84.44,9.59,1.06,14.43,1.76,4.84.62,9.33,2.02,13.55,4.14l1.23,3.17-5.98,1.58-2.02-.44-2.73,1.23-.88,1.58-5.54,4.31c-3.52,1.06-6.51,3.08-9.24,5.9l-5.19,5.19h1.14c3.26-1.14,6.6-2.11,10.03-2.99,3.43-.97,7.22-1.14,11.18-.62,6.42,1.06,12.32,3.7,17.69,7.92,1.58,3.43,2.73,7.13,3.61,11.09-.88,6.25-3.52,11.79-8.01,16.54-3.52,2.11-7.13,3.61-10.82,4.66-3.78,1.06-7.48,2.2-11.18,3.26-6.16-1.85-11.79-4.66-16.9-8.36ZM400.94,131.15c-5.02-3.43-10.47-5.37-16.37-5.98l-.79,2.46c3.43,2.82,7.66,4.58,12.41,5.1l4.75-1.58Z"/><path class="cls-2" d="M8.1,35.39l.42-2.67-1.29.18-1.24-2.72,1.66-.78,4.7,1.2.23-3.09c-1.71-.18-3.27-.65-4.7-1.52l-1.01-1.84,1.24-1.48h1.48l1.11.46v-.88c-.6-1.38-.92-2.81-1.11-4.33l.88-1.06.42-.65-4.47-.6c-.55-1.11-1.2-2.21-1.89-3.32l.65-.46v-.83l1.24-.41c1.43,1.11,3.09,1.75,5.07,1.84l-1.66-3.09c.6-1.11,1.06-2.31,1.48-3.55l.88-.41.18-.46,1.06-.18,3.83,1.89,1.29,3.55-.23,1.01c.55,1.24,1.61,1.71,3.18,1.24l1.71-.6c-.41,1.11-1.11,1.94-2.12,2.49-.55,3.09-1.01,6.22-1.29,9.4.97.42,2.07.55,3.18.42l.65-.23.46.88-1.48,1.43-4.06.88-.65,2.67c.83.46,1.84.55,2.95.41l.88-.23,1.06.23v.65l-.83,1.01c-1.15.6-2.35,1.01-3.64,1.29l-.18,2.49c1.24,1.24,2.67,2.07,4.24,2.49l.6-.18,1.52,1.66c-1.01.83-2.21,1.15-3.64,1.06l-3.36-1.06-.23,1.24.23,1.89c-.69.83-1.57,1.24-2.58,1.24-.83-1.52-1.38-3.18-1.66-5.02-.28-1.8-.41-3.6-.41-5.44l-1.34.23-1.24-.23-.42,3.37.65,6.08c0,.92-.37,1.84-1.11,2.67-.97-3.23-1.38-6.59-1.24-10.23ZM17.87,22.9c.28-2.9,1.11-5.62,2.58-8.16h-1.34c-1.57.6-3.23.88-5.07.88l-.23.78.23,1.06-.42,1.48.65,3.32-.65,1.48,3.37.18.88-.18v-.83ZM34.42,43.09l-.23-.78.65-1.66c-.42-1.29-.55-2.58-.42-3.96l.42-1.29h-.78l-.69.23-1.24-.23-2.12,5.02-1.11,1.01-1.48,3.55-.88.23-.14-1.24c.65-3.04,1.52-6.13,2.49-9.17l-3.13-2.54c-.32-1.94-.6-3.78-.88-5.58-.28-1.84-.37-3.78-.23-5.85l.42-.83-.18-2.07c.6-2.81,1.38-5.53,2.35-8.16l2.35-1.89c1.24,1.52,1.89,3.27,1.89,5.21l-.23,2.31c2.86,1.52,5.81,2.63,8.9,3.32v-3.09l-.37-2.12c-2.72-1.24-5.25-2.77-7.65-4.56l-1.06-1.48c.28-1.24,1.11-1.8,2.54-1.66,2.12.55,4.19,1.29,6.18,2.21,1.98.88,3.92,1.8,5.9,2.77l.23.65.65.23v.78l-1.48.46c-.28,1.94-.65,3.83-1.11,5.62l.23,1.24c-.41,2.21-.88,4.47-1.38,6.68-.46,2.21-1.29,4.33-2.44,6.27l-1.24,1.01-.23.65c-1.24,0-2.17.32-2.77,1.01l.88,1.48c2.4,1.38,5.07,2.12,8.07,2.12l1.06-.46v1.06l-.46.83.23.65-.42,1.24.42.78.41.23c-1.84,1.71-3.83,2.9-5.95,3.55-2.26-.55-4.24-1.8-5.95-3.78ZM39.76,31.48c.42-2.67.69-5.3.83-7.93l-.46-1.89h-1.01l-.88,1.01-2.72.65c-1.89-.14-3.6-.55-5.16-1.29l-.14,2.54c2.95,1.24,6.04,1.94,9.31,2.07l-2.35,1.89c-1.43.05-2.81.14-4.24.23l-2.35-.65v1.66l.65,2.07,4.7.41,3.83-.78ZM38.24,8.93v.6l.42-.18-.42-.42ZM43.59,41.89l-1.29.18v.65l1.06-.23.23-.6Z"/><path class="cls-2" d="M57.14,39.5c-1.43-2.49-2.49-5.07-3.18-7.84-.74-2.72-1.15-5.53-1.29-8.48.28-1.8.6-3.6.97-5.35.32-1.75.88-3.46,1.57-5.12l.6-.23.88-1.24,1.24-.23.23,3.18c-.28,1.66-.41,3.37-.41,5.12v5.35c.14,2.21.23,4.47.32,6.68.05,2.26.42,4.33,1.11,6.27l1.11.23.78-.23v3l-.14.6h-1.11l-2.67-1.71ZM65.71,34.06l-1.24-2.49c-.18-2.4.69-4.33,2.49-5.85l.65-.18-.65,4.79.88,1.43c2.67.69,5.39,1.06,8.21,1.06l2.3-.18,1.29.18,1.66-.65.65-.78c1.52-.46,2.95-1.01,4.19-1.71l1.29.65.42,1.24-3.6,1.84-1.06,1.52-2.54,1.01-.78-.18c-1.57.55-3.32.78-5.3.65-3.09-.42-6.04-1.2-8.85-2.35ZM66.96,15.66l-1.43-3.18,3.13-.18,5.3.41c2.21-.28,4.52-.55,6.91-.74,2.35-.23,4.61-.69,6.78-1.38l1.89,1.71v.83l-.23.42c-1.29,1.38-2.77,2.67-4.43,3.78h-.88l-1.66-.42c-1.8.83-3.87,1.24-6.08,1.24-3.37-.28-6.45-1.11-9.31-2.49Z"/><path class="cls-2" d="M102.36,42.26c-.42-.69-1.06-1.06-1.89-1.06-1.24-1.98-2.07-4.15-2.44-6.5-.37-2.4-.46-4.84-.32-7.33.28-2.67.69-5.25,1.15-7.74.51-2.54,1.38-4.89,2.63-7.15l.65-.18c.74.97,1.01,2.17.88,3.55-.32,1.57-.6,3.09-.88,4.61l.23.83c-.05,5.76-.05,11.66,0,17.61h.65l1.89-3.13.6-.23.23.88c-1.15,1.8-2.12,3.69-2.95,5.62l-.41.23ZM118.17,40.14c-1.98-.42-3.73-1.48-5.3-3.09-1.52-1.57-2.4-3.41-2.54-5.49l1.94-3.78c2.35-.97,5.02-1.38,7.97-1.24l4.61.83v-2.3l-.42-1.89c.05-1.01.09-2.07.18-3.13-.69-.42-1.43-.55-2.26-.42l-3.6.23-1.29-.23c-.42.55-.97.78-1.66.6-1.43-.51-3-.74-4.84-.6l-2.31-2.72.6-2.12,1.06-.42c1.29.46,2.63.65,4.01.65,3.18-.09,6.36-.28,9.5-.65.42-.97.55-2.07.42-3.37l-.42-2.07.42-1.24h1.24l2.54,1.24.42,1.66-1.06.23v.65c.28,1.11.51,2.21.65,3.32,2.49.28,5.02.55,7.61.88l.6-1.11,1.66-.55.23,1.43-2.49,2.9c-2.4.74-4.93,1.15-7.61,1.29l-.42,1.89.23.6-.65,6.5,4.19,2.77,3.13,3.96v1.89l-.6,1.89c-2.26-1.98-4.56-3.5-6.96-4.61h-.65l-2.07,4.38-3.18,1.24-1.01-.18-1.89.18ZM123.19,36.82c.69-1.01,1.11-2.07,1.24-3.18-1.52-.97-3.13-1.89-4.75-2.72-1.57-.83-3.32-1.29-5.12-1.43-1.43,1.11-1.98,2.49-1.71,4.15l1.48,2.54c2.26.83,4.7,1.24,7.38,1.24l1.48-.6Z"/><path class="cls-2" d="M155.09,20.04l-.69.18-1.24-.18-.65.18c-3.23-.23-6.13-1.38-8.67-3.32l-.42-1.48.83-1.66,1.89-.42c1.84.42,3.69.78,5.62,1.01,1.89.28,3.78.51,5.58.65l-3.37-3.37-.83-2.3.18-.83c-.97-.69-1.34-1.61-1.01-2.72l1.01-.41c.69-.74,1.61-1.01,2.77-.83,3.5.42,6.91,1.24,10.19,2.49l.37,1.06,1.06.41.23,1.06.83.41.23,1.01.65.23.18,2.12-1.29,2.49c1.75.41,3.55.6,5.44.6h5.58l2.35-.37.18.6-.83,1.29c-3.69.97-7.47,1.66-11.43,1.98-3.92.37-7.93.51-12.03.51l-2.72-.41ZM161.18,25.9c-2.26-.41-4.56-.55-6.96-.37l-.88.18-1.01-.18-.69.18c-1.11-.46-2.21-.92-3.37-1.48l-.18-.6.83-1.75c.88-.51,1.84-.78,2.95-.78,2.58.69,5.12,1.29,7.65,1.75,2.54.51,5.21.69,8.02.55,3.23-.28,6.41-.69,9.5-1.29l.41.88-1.06,1.43c-1.98.32-3.92.6-5.81.88-1.89.28-3.83.46-5.81.6l-1.06-.18-2.54.18ZM149.98,30.32l-.83-1.89c1.52-1.15,3.5-1.48,5.95-1.06l8.85.83,1.01-.23.65.23c3.41.14,6.64-.14,9.77-.83l.18.83-.88,1.06c-1.52.55-3.18.92-5.02,1.06l-1.11-.23-10.56.65-.65-.23-3.37.23-2.54-.23-.6.23-.88-.42ZM155.09,44.8l-.88-1.11c-.83-.09-1.61-.51-2.35-1.2-1.11-.83-1.52-2.03-1.24-3.6.14-2.26.65-4.24,1.48-6.08l1.48-.83c1.43.42,2.54,1.11,3.41,2.07l.18.65-.18,1.24c.14,1.71.65,3.23,1.48,4.66,2.4,1.11,4.98,1.75,7.84,1.89,2.21.05,4.47-.14,6.73-.65-.41-1.57-.65-2.95-.65-4.24-2.12-.28-4.15-.6-6.13-1.01-1.94-.42-3.92-.92-5.9-1.43l-.65-1.75.65-1.24,3.37-.42c2.95,0,5.9.14,8.76.32,2.9.23,5.62.97,8.16,2.21l.42,1.06-.42,1.06-1.89.65-.6.78-1.11.41c-.42,1.84-1.06,3.6-1.89,5.26l-.65.18-.41-1.2h-.65l-.42.78h-.65l-.83,1.71-2.12.6-.88-.42-3.96,1.06-1.11-.42c-.97.28-2.03.46-3.13.65-1.98-.18-3.73-.74-5.25-1.66Z"/><path class="cls-2" d="M195.38,45.21c-.74-.55-1.11-1.24-1.11-2.12,1.71-3.41,3.78-6.78,6.22-9.96,2.44-3.23,4.89-6.41,7.33-9.59l-1.48-.23-2.81.23c-3.6,0-6.78-1.01-9.5-2.95v-1.89l.46-1.24,2.17-.42c2.72.55,5.49,1.11,8.3,1.57,2.77.51,5.62.92,8.48,1.38l1.48-.23.92.42v.65l-1.29,1.2c-.46,1.01-1.2,1.94-2.17,2.77-2.3,1.8-4.43,3.83-6.27,6.04v.65c2.72.69,5.16,1.84,7.33,3.55l3.41,2.9h2.17c1.01-.69,1.75-1.57,2.17-2.54l.69-1.43.83-.23.18,3.55-1.24,1.71-.46.37c-1.71,1.57-3.78,2.44-6.27,2.72-1.71-.42-3.36-1.06-5.02-1.89-1.66-.78-3.13-1.94-4.43-3.32l-1.94-1.84h-.65c-1.29,1.61-2.54,3.27-3.64,4.89-1.15,1.57-2.07,3.27-2.81,5.07l-1.06.23ZM206.44,13.41c-2.4-.32-4.56-1.2-6.59-2.63l-.6-2.44.18-1.52,2.4-.78c2.72.78,5.44,1.75,8.16,2.9,2.72,1.11,5.39,2.3,7.97,3.5l.65-.14.23,1.2c-1.57,1.24-3.46,1.84-5.62,1.71-2.17-.83-4.43-1.43-6.78-1.8Z"/><path class="cls-2" d="M240.6,33.27v-3.41c.37-1.94.88-3.87,1.43-5.76.6-1.89,1.06-3.78,1.43-5.76h-1.43l-.6-.37c-1.15-1.29-1.75-2.77-1.89-4.43l.83-.65v-.6c1.71.41,3.37.69,4.98.83,1.01-1.66,1.8-3.5,2.3-5.44.69-.83,1.61-1.34,2.72-1.48l.83.6v2.54l-.6.88-1.29,3.32,7.56,1.01,1.43-.78.6,1.01-2.03,1.89c-1.98.42-3.92.83-5.85,1.29l-1.06-.23c-.83.41-1.66.6-2.54.6l-3.32,12.17-1.01.88-.65,1.89-.83.37-1.01-.37ZM255.58,44.15c-.55.42-1.15.55-1.89.42-1.8-.69-3.5-1.61-5.16-2.72-1.24-1.66-2.12-3.55-2.54-5.67l4.38-4.43,4.79-1.01,1.89.23v-.65l-1.24-4.01c.14-1.8.6-3.27,1.43-4.43l1.66-.6v1.48l-.14,1.06c.42,2.9,1.57,5.53,3.5,7.74,3.37.55,6.27,2.03,8.76,4.38l.42,2.77-1.06.6-6.87-2.9-.65,3.73.23,1.24-2.49,2.95-3.37.46-1.66-.65ZM259.77,37.84c-.28-1.24-.83-2.44-1.66-3.55-1.43-.83-3.09-1.2-5.02-1.01l-1.66.78-2.49,3.37c.83.97,1.84,1.75,3.09,2.3,2.26.42,4.61.74,7.1.88l.65-2.77ZM266.46,20.64c-1.66-.37-3.13-1.2-4.38-2.49l-1.29-1.24c-1.11-1.94-1.98-3.96-2.67-6.08l.65-1.24c2.31,1.11,4.47,2.44,6.41,3.96,1.94,1.52,4.19,2.44,6.73,2.72l-.88,1.29h-.65l-.6,2.49-2.3.6-.65-.42-.37.42Z"/><path class="cls-2" d="M293.05,39.17c-2.26-3.78-3.87-7.84-4.84-12.22-.97-4.38-1.57-8.9-1.71-13.46,0-1.52.37-2.77,1.11-3.73h.78c1.24,2.07,2.17,4.38,2.77,6.87l-.23,1.06.46,3.55-.23.65c.69,2.9,1.38,5.72,2.07,8.53.69,2.77,1.89,5.39,3.6,7.93l1.06.18,3.13-2.07,2.54-2.95.23,1.89c-.83,1.71-2.03,3.18-3.6,4.38l-3.55,1.48-3.6-2.07ZM311.58,26.64c-1.57-1.8-2.35-3.96-2.35-6.45s-.28-4.89-.83-7.1l.83-.18,3.37,2.9c1.57,2.77,3.46,5.49,5.72,8.11l2.07.88.23,1.01-1.24.65-1.71-.23-2.12,1.89-1.43.18-2.54-1.66Z"/><path class="cls-2" d="M334.86,44.2c-.09-3.73-.18-7.47-.23-11.16l-2.35,2.31-1.06.14-.18,1.29-1.94-.41-1.29-3.5c1.11-2.07,2.21-4.19,3.32-6.32,1.06-2.17,2.4-4.19,3.96-6.13,1.24-1.2,2.67-1.98,4.24-2.26l.65-1.24,1.29-.41,1.94.65.18,1.01c-1.43,1.66-2.58,3.41-3.41,5.3-.88,1.84-1.71,3.64-2.54,5.44l-.65.23-.23,1.43c.74,1.11,1.06,2.35,1.06,3.73l-.18.42.83,9.08-1.48,2.9-1.94-2.49ZM345.92,42.12l2.58-3.69-3.23-2.54-.6-2.26,1.71-.78.23-.46,1.89-.18c1.29.97,2.72,1.52,4.29,1.66l1.29-2.07c-2.58-.41-4.89-1.43-6.87-3.09-1.71,1.06-2.9,2.54-3.64,4.33h-.6l-.88-.18-.65-.46v.88h-.83l-.88-.41-.42-3.13c.83-1.61,1.75-3.27,2.67-4.84.92-1.61,2.03-3.13,3.27-4.7l1.52-.55.41-1.06,2.58-2.31c-3.27-.51-6.68-.74-10.23-.69-3.55.05-6.78-.69-9.63-2.17l-.18-1.43.83-1.06,2.35-.23,10.28,1.06-2.81-3.5-.23-1.71c.88-.65,1.89-.92,3.04-.78l.6-.83h.88l.6.18,1.75-.41c2.26.69,4.38,1.89,6.36,3.55l.69.6.42,1.84-.88.65v1.24l4.52.42,7.88-1.01v.78c-1.71,1.52-3.69,2.4-5.9,2.58-2.21.23-4.38.6-6.5,1.15-.14,1.11-.51,2.07-1.06,2.9,1.71.69,3.5,1.29,5.35,1.84,1.84.55,3.78.83,5.76.83l.65.83h.83v.83l-1.06,1.24-2.77,1.24c-1.71,3.04-3.5,5.99-5.35,8.9,1.43,1.2,3.13,1.84,5.02,1.94,1.94.09,3.73.55,5.44,1.38l.18,2.49-2.12.18-.18,1.24-1.29.18-1.06,2.3-1.71.6c-2.86-.55-5.49-1.61-7.88-3.09l-.69-.88h-.83c-1.15,1.71-2.4,3.23-3.83,4.56l-1.11-3.92ZM356.8,28.89c.46-.83.6-1.8.46-2.9-1.98-1.11-4.19-1.84-6.59-2.26l-.46,1.24c.28.55.78.74,1.48.65l2.4,2.21,2.72,1.06ZM352.79,12.16l-.23.6,1.06.23-.83-.83Z"/><path class="cls-2" d="M376.39,41.71v-1.01h-.6l-.46-2.95c1.84-2.35,3.37-4.79,4.61-7.33,1.29-2.58,2.63-5.12,4.01-7.61-2.9-.28-5.44-1.43-7.56-3.5-.69-.6-1.01-1.34-.83-2.3l1.01-2.49.88-.23,5.67,2.3.83-.23,3.18.65,4.61-7.7.88-.18-1.29,5.81.18.65-1.24,2.67c2.81,1.52,5.76,2.67,8.85,3.55v1.89c-2.07,2.3-3.55,4.89-4.43,7.65-.83,2.77-1.98,5.49-3.37,8.07h-.6l-.46-1.01.23-.65-.65-2.07,4.19-10.97c-2.12-.28-4.19-.55-6.32-.88-1.52,3.23-3.09,6.36-4.7,9.5-1.61,3.09-3.55,6.13-5.81,9.03l-.83-.65ZM412.99,37.75c-.97,0-1.8-.42-2.49-1.2-2.95-3.32-5.53-6.91-7.7-10.74-2.17-3.78-3.27-8.07-3.27-12.77h.88l3.78,3.96c1.24,3.32,2.63,6.64,4.1,9.96s3.46,6.45,5.99,9.36l-.65,1.24-.65.18ZM408.38,15.16c-2.12-1.66-3.32-3.69-3.6-6.04l.88-.23,5.26,4.61.18,1.2c-.41.69-1.06,1.06-1.89,1.06l-.83-.6ZM414.28,13.68c-.88-.42-1.71-.92-2.54-1.43-1.71-1.66-2.58-3.69-2.77-6.04h.88c1.57,1.52,3.23,2.86,5.02,3.96h.88v1.43l-1.48,2.07Z"/><path class="cls-2" d="M429.22,45.4c-1.52-1.11-3-2.26-4.43-3.5-1.43-1.24-2.58-2.72-3.55-4.43l-.88-2.44c.41-.69,1.06-.92,1.89-.65,2.86,1.11,5.53,2.63,8.02,4.61l.65,1.24,1.01,1.01.41,1.84c.74.32,1.01.88.88,1.71l-4.01.6Z"/><path class="cls-4" d="M43.48,135.02c-4.22-.88-8.45-1.76-12.67-2.82-4.14-1.06-7.83-3.17-11-6.42-1.94-3.96-2.99-8.18-3.26-12.67l2.02-.79,4.84,5.1c.26,2.11,1.06,4.05,2.38,5.63,5.9,2.11,12.32,2.99,19.27,2.73,4.31-.26,8.62-.53,12.94-.97,4.22-.35,8.27-1.5,11.97-3.34l2.11,1.14.35,4.4c-.53,1.58-1.5,2.55-2.82,2.82l-1.58,2.38c-2.46.79-5.02,1.5-7.66,2.02l-2.38-.44-1.23.44-1.23-.44c-2.9.79-5.9,1.23-8.8,1.23l-1.23-.44-2.02.44ZM28.96,86l-.7-2.38c-1.94.26-3.34-.44-4.4-2.02l-1.23-2.73,1.23-1.67,1.94-.35,2.02.35,1.14-.35c2.46,1.06,5.02,1.85,7.66,2.38l4.05-.79,25.34,1.67,3.61-2.11.79,2.82c-1.32,2.11-3.17,4.05-5.54,5.63l-2.9.79-1.14,1.58-9.33,2.29-3.17-.26-10.03.7-9.33-5.54Z"/><path class="cls-4" d="M131.48,135.02c-4.22-.88-8.45-1.76-12.67-2.82-4.14-1.06-7.83-3.17-11-6.42-1.94-3.96-2.99-8.18-3.26-12.67l2.02-.79,4.84,5.1c.26,2.11,1.06,4.05,2.38,5.63,5.9,2.11,12.32,2.99,19.27,2.73,4.31-.26,8.62-.53,12.94-.97,4.22-.35,8.27-1.5,11.97-3.34l2.11,1.14.35,4.4c-.53,1.58-1.5,2.55-2.82,2.82l-1.58,2.38c-2.46.79-5.02,1.5-7.66,2.02l-2.38-.44-1.23.44-1.23-.44c-2.9.79-5.9,1.23-8.8,1.23l-1.23-.44-2.02.44ZM116.96,86l-.7-2.38c-1.94.26-3.34-.44-4.4-2.02l-1.23-2.73,1.23-1.67,1.94-.35,2.02.35,1.14-.35c2.46,1.06,5.02,1.85,7.66,2.38l4.05-.79,25.34,1.67,3.61-2.11.79,2.82c-1.32,2.11-3.17,4.05-5.54,5.63l-2.9.79-1.14,1.58-9.33,2.29-3.17-.26-10.03.7-9.33-5.54Z"/><path class="cls-2" d="M193.87,132.03c-2.73-4.75-4.75-9.68-6.07-14.96-1.41-5.19-2.2-10.56-2.46-16.19.53-3.43,1.14-6.86,1.85-10.21.62-3.34,1.67-6.6,2.99-9.77l1.14-.44,1.67-2.38,2.38-.44.44,6.07c-.53,3.17-.79,6.42-.79,9.77v10.21c.26,4.22.44,8.54.62,12.76.09,4.31.79,8.27,2.11,11.97l2.11.44,1.5-.44v5.72l-.26,1.14h-2.11l-5.1-3.26ZM210.24,121.64l-2.38-4.75c-.35-4.58,1.32-8.27,4.75-11.18l1.23-.35-1.23,9.15,1.67,2.73c5.1,1.32,10.3,2.02,15.66,2.02l4.4-.35,2.46.35,3.17-1.23,1.23-1.5c2.9-.88,5.63-1.94,8.01-3.26l2.46,1.23.79,2.38-6.86,3.52-2.02,2.9-4.84,1.94-1.5-.35c-2.99,1.06-6.34,1.5-10.12,1.23-5.9-.79-11.53-2.29-16.9-4.49ZM212.62,86.53l-2.73-6.07,5.98-.35,10.12.79c4.22-.53,8.62-1.06,13.2-1.41,4.49-.44,8.8-1.32,12.94-2.64l3.61,3.26v1.58l-.44.79c-2.46,2.64-5.28,5.1-8.45,7.22h-1.67l-3.17-.79c-3.43,1.58-7.39,2.38-11.62,2.38-6.42-.53-12.32-2.11-17.78-4.75Z"/><path class="cls-2" d="M322.53,140.56c2.73-3.7,5.19-7.48,7.48-11.18,2.29-3.7,3.08-8.1,2.55-13.11l-2.82-4.75c-2.11-2.11-4.49-3.43-7.22-4.05-.79,4.49-2.02,8.8-3.78,12.76-1.67,3.96-3.61,8.01-5.81,11.97l-5.9,4.75-3.61,4.4-3.61,1.14c-5.37-.26-9.86-2.46-13.64-6.78l-2.82-5.9c-3.17-2.9-5.19-6.25-5.98-9.94,1.32-2.64,2.46-5.37,3.61-8.01,2.64-2.9,5.63-5.46,8.71-7.57,1.94.26,3.43-.53,4.49-2.38l.35-1.58-1.58-10.38-3.61,1.14-2.38-.26-2.82.7-1.23-.44-3.96.88c-1.85-1.32-3.7-2.55-5.54-3.61-1.41-1.58-1.76-3.61-1.23-5.98l1.23-2.29,1.14-.44,2.38,1.14,1.58-.44,2.46,1.23,6.78-1.23,1.58.44,2.46-.7c.18-4.84,1.14-9.24,2.73-13.2h2.38l2.9,2.38c.79,3.52,1.67,6.95,2.73,10.38,4.31.26,8.54.7,12.85,1.41,4.22.62,8.62.97,13.2.97l2.38-3.17,1.23-.44,1.14,1.94-2.38,4.05c-5.63,2.99-11.7,4.4-18.39,4.4l-7.22-.44-4.05,1.23-.35,3.96,1.58,3.61h2.02l10.74-1.67,2.9-2.29,3.17-.88.44,4.05,5.54,1.23,2.02-.44,1.58,2.73,8.01,4.84.79.79c3.43,3.17,5.19,7.04,5.19,11.53-.26,4.31-2.02,7.83-5.19,10.74-3.26,4.31-6.78,8.27-10.74,11.97l-6.07,3.17-.44-2.38ZM303.43,127.45v-1.67c-2.46-5.02-4.49-10.3-6.07-15.93h-1.94c-3.78,1.32-7.13,3.34-10.03,6.07l-.35,4.4c.79,3.87,2.73,7.48,5.9,10.74l3.26.7,9.24-4.31ZM295.42,107.48l-.44,1.23,1.23-.35-.79-.88ZM308.54,122.61c1.94-2.9,3.08-6.07,3.61-9.33.53-3.26,1.06-6.69,1.67-10.21h-1.67l-8.36,3.17-.35,2.46c1.32,4.75,2.46,9.59,3.61,14.34l1.5-.44Z"/><path class="cls-2" d="M381.31,132.29l-2.38-4.31c.79-1.58,1.23-3.17,1.23-4.75,3.43-3.17,7.74-4.31,12.76-3.52,5.37,2.11,10.3,4.84,14.78,8.27,4.58-2.64,8.45-5.9,11.62-9.86l.44-7.13-2.02-.79-1.14-4.66c-3.26-1.32-6.42-2.55-9.68-3.61l-1.5.35-6.42-.7c-4.31.79-8.36,1.85-12.41,3.34-4.05,1.41-7.74,3.34-11.26,5.72l-3.17,3.08h-1.23l-1.14-4.66,24.38-25.26.88-1.23c-3.26-.26-6.6-.53-10.03-.97-3.52-.35-6.95-.44-10.47-.18l-1.5.35-6.07-3.96-.44-1.5c1.94-1.85,4.05-2.9,6.51-3.26l7.13.44,6.78-1.14c4.84.44,9.59,1.06,14.43,1.76,4.84.62,9.33,2.02,13.55,4.14l1.23,3.17-5.98,1.58-2.02-.44-2.73,1.23-.88,1.58-5.54,4.31c-3.52,1.06-6.51,3.08-9.24,5.9l-5.19,5.19h1.14c3.26-1.14,6.6-2.11,10.03-2.99,3.43-.97,7.22-1.14,11.18-.62,6.42,1.06,12.32,3.7,17.69,7.92,1.58,3.43,2.73,7.13,3.61,11.09-.88,6.25-3.52,11.79-8.01,16.54-3.52,2.11-7.13,3.61-10.82,4.66-3.78,1.06-7.48,2.2-11.18,3.26-6.16-1.85-11.79-4.66-16.9-8.36ZM400.94,131.15c-5.02-3.43-10.47-5.37-16.37-5.98l-.79,2.46c3.43,2.82,7.66,4.58,12.41,5.1l4.75-1.58Z"/></g></svg>